<svg width="203" height="44" viewBox="0 0 203 44" fill="none" xmlns="http://www.w3.org/2000/svg">
<g clip-path="url(#clip0_513_3297)">
<path d="M59 22V29H45V22H43V29C43 30.1 43.9 31 45 31H59C60.1 31 61 30.1 61 29V22H59ZM53 22.67L55.59 20.09L57 21.5L52 26.5L47 21.5L48.41 20.09L51 22.67V13H53V22.67Z" fill="#5706AC"/>
</g>
<path d="M79.932 29H75.6941V15.9091H80.0662C81.3489 15.9091 82.4505 16.1712 83.3709 16.6953C84.2914 17.2152 84.9966 17.9631 85.4867 18.9389C85.981 19.9105 86.2282 21.076 86.2282 22.4354C86.2282 23.799 85.9789 24.9709 85.4803 25.951C84.986 26.9311 84.2701 27.6854 83.3326 28.2138C82.3951 28.7379 81.2615 29 79.932 29ZM77.6692 27.2741H79.8233C80.8205 27.2741 81.6493 27.0866 82.3098 26.7116C82.9703 26.3324 83.4647 25.7848 83.7928 25.0689C84.1209 24.3487 84.285 23.4709 84.285 22.4354C84.285 21.4084 84.1209 20.5369 83.7928 19.821C83.4689 19.1051 82.9853 18.5618 82.3418 18.1911C81.6983 17.8203 80.8993 17.6349 79.9448 17.6349H77.6692V27.2741ZM92.7624 29.1982C91.7951 29.1982 90.962 28.9915 90.2631 28.5781C89.5685 28.1605 89.0316 27.5746 88.6523 26.8203C88.2773 26.0618 88.0898 25.1733 88.0898 24.1548C88.0898 23.1491 88.2773 22.2628 88.6523 21.4957C89.0316 20.7287 89.56 20.13 90.2376 19.6996C90.9194 19.2692 91.7163 19.054 92.6282 19.054C93.1822 19.054 93.7191 19.1456 94.239 19.3288C94.7589 19.5121 95.2255 19.7997 95.6388 20.1918C96.0522 20.5838 96.3782 21.093 96.6168 21.7195C96.8555 22.3416 96.9748 23.098 96.9748 23.9886V24.6662H89.1701V23.2344H95.1019C95.1019 22.7315 94.9996 22.2862 94.7951 21.8984C94.5906 21.5064 94.3029 21.1974 93.9322 20.9716C93.5657 20.7457 93.1353 20.6328 92.641 20.6328C92.104 20.6328 91.6353 20.7649 91.2347 21.0291C90.8384 21.2891 90.5316 21.63 90.3143 22.0518C90.1012 22.4695 89.9947 22.9233 89.9947 23.4134V24.532C89.9947 25.1882 90.1097 25.7464 90.3398 26.2067C90.5742 26.6669 90.9002 27.0185 91.3178 27.2614C91.7354 27.5 92.2234 27.6193 92.7816 27.6193C93.1438 27.6193 93.4741 27.5682 93.7724 27.4659C94.0707 27.3594 94.3285 27.2017 94.5458 26.9929C94.7631 26.7841 94.9293 26.5263 95.0444 26.2195L96.8533 26.5455C96.7085 27.0781 96.4485 27.5447 96.0735 27.9453C95.7028 28.3416 95.2362 28.6506 94.6737 28.8722C94.1154 29.0895 93.4783 29.1982 92.7624 29.1982ZM106.453 21.5788L104.72 21.8857C104.648 21.6641 104.533 21.4531 104.375 21.2528C104.222 21.0526 104.013 20.8885 103.749 20.7607C103.485 20.6328 103.154 20.5689 102.758 20.5689C102.217 20.5689 101.765 20.6903 101.403 20.9332C101.041 21.1719 100.86 21.4808 100.86 21.8601C100.86 22.1882 100.981 22.4524 101.224 22.6527C101.467 22.853 101.859 23.017 102.4 23.1449L103.96 23.5028C104.863 23.7116 105.536 24.0334 105.98 24.468C106.423 24.9027 106.644 25.4673 106.644 26.1619C106.644 26.75 106.474 27.2741 106.133 27.7344C105.796 28.1903 105.325 28.5483 104.72 28.8082C104.119 29.0682 103.423 29.1982 102.63 29.1982C101.531 29.1982 100.634 28.9638 99.9391 28.495C99.2445 28.022 98.8184 27.3509 98.6607 26.4815L100.508 26.2003C100.623 26.6818 100.86 27.0462 101.218 27.2933C101.575 27.5362 102.042 27.6577 102.617 27.6577C103.244 27.6577 103.744 27.5277 104.119 27.2678C104.494 27.0036 104.682 26.6818 104.682 26.3026C104.682 25.9957 104.567 25.7379 104.337 25.5291C104.111 25.3203 103.764 25.1626 103.295 25.0561L101.633 24.6918C100.717 24.483 100.039 24.1506 99.6003 23.6946C99.1657 23.2386 98.9483 22.6612 98.9483 21.9624C98.9483 21.3828 99.1103 20.8757 99.4341 20.4411C99.758 20.0064 100.205 19.6676 100.776 19.4247C101.347 19.1776 102.002 19.054 102.739 19.054C103.8 19.054 104.635 19.2841 105.244 19.7443C105.854 20.2003 106.257 20.8118 106.453 21.5788ZM112.881 29.1982C111.931 29.1982 111.113 28.983 110.427 28.5526C109.745 28.1179 109.221 27.5192 108.854 26.7564C108.488 25.9936 108.305 25.12 108.305 24.1357C108.305 23.1385 108.492 22.2585 108.867 21.4957C109.242 20.7287 109.771 20.13 110.452 19.6996C111.134 19.2692 111.938 19.054 112.862 19.054C113.608 19.054 114.273 19.1925 114.857 19.4695C115.44 19.7422 115.911 20.1257 116.269 20.62C116.631 21.1143 116.847 21.6918 116.915 22.3523H115.055C114.952 21.892 114.718 21.4957 114.352 21.1634C113.989 20.831 113.504 20.6648 112.894 20.6648C112.362 20.6648 111.895 20.8054 111.494 21.0866C111.098 21.3636 110.789 21.7599 110.567 22.2756C110.346 22.7869 110.235 23.392 110.235 24.0909C110.235 24.8068 110.344 25.4247 110.561 25.9446C110.778 26.4645 111.085 26.8672 111.482 27.1527C111.882 27.4382 112.353 27.581 112.894 27.581C113.256 27.581 113.585 27.5149 113.879 27.3828C114.177 27.2464 114.426 27.0526 114.626 26.8011C114.831 26.5497 114.974 26.2472 115.055 25.8935H116.915C116.847 26.5284 116.64 27.0952 116.295 27.5938C115.95 28.0923 115.487 28.4844 114.908 28.7699C114.332 29.0554 113.657 29.1982 112.881 29.1982ZM121.816 29.2173C121.194 29.2173 120.631 29.1023 120.128 28.8722C119.626 28.6378 119.227 28.299 118.933 27.8558C118.643 27.4126 118.498 26.8693 118.498 26.2259C118.498 25.6719 118.605 25.2159 118.818 24.858C119.031 24.5 119.319 24.2166 119.681 24.0078C120.043 23.799 120.448 23.6413 120.895 23.5348C121.343 23.4283 121.799 23.3473 122.263 23.2919C122.851 23.2237 123.329 23.1683 123.695 23.1257C124.062 23.0788 124.328 23.0043 124.494 22.902C124.66 22.7997 124.743 22.6335 124.743 22.4034V22.3587C124.743 21.8004 124.586 21.3679 124.27 21.0611C123.959 20.7543 123.495 20.6009 122.877 20.6009C122.233 20.6009 121.726 20.7436 121.356 21.0291C120.989 21.3104 120.736 21.6236 120.595 21.9688L118.799 21.5597C119.012 20.9631 119.323 20.4815 119.732 20.1151C120.145 19.7443 120.621 19.4759 121.157 19.3097C121.694 19.1392 122.259 19.054 122.851 19.054C123.243 19.054 123.659 19.1009 124.098 19.1946C124.541 19.2841 124.954 19.4503 125.338 19.6932C125.726 19.9361 126.043 20.2834 126.29 20.7351C126.537 21.1825 126.661 21.7642 126.661 22.4801V29H124.795V27.6577H124.718C124.594 27.9048 124.409 28.1477 124.162 28.3864C123.915 28.625 123.597 28.8232 123.209 28.9808C122.822 29.1385 122.357 29.2173 121.816 29.2173ZM122.231 27.6832C122.76 27.6832 123.211 27.5788 123.586 27.37C123.966 27.1612 124.253 26.8885 124.449 26.5518C124.65 26.2109 124.75 25.8466 124.75 25.4588V24.1932C124.682 24.2614 124.55 24.3253 124.354 24.3849C124.162 24.4403 123.942 24.4893 123.695 24.532C123.448 24.5703 123.207 24.6065 122.973 24.6406C122.738 24.6705 122.542 24.696 122.385 24.7173C122.014 24.7642 121.675 24.843 121.368 24.9538C121.066 25.0646 120.823 25.2244 120.64 25.4332C120.461 25.6378 120.371 25.9105 120.371 26.2514C120.371 26.7244 120.546 27.0824 120.895 27.3253C121.245 27.5639 121.69 27.6832 122.231 27.6832ZM129.207 29V19.1818H131.054V20.7415H131.156C131.335 20.2131 131.651 19.7976 132.102 19.495C132.558 19.1882 133.074 19.0348 133.649 19.0348C133.768 19.0348 133.909 19.0391 134.071 19.0476C134.237 19.0561 134.367 19.0668 134.461 19.0795V20.9077C134.384 20.8864 134.248 20.8629 134.052 20.8374C133.856 20.8075 133.66 20.7926 133.464 20.7926C133.012 20.7926 132.609 20.8885 132.256 21.0803C131.906 21.2678 131.629 21.5298 131.425 21.8665C131.22 22.1989 131.118 22.5781 131.118 23.0043V29H129.207ZM139.88 32.8864C139.1 32.8864 138.429 32.7841 137.866 32.5795C137.308 32.375 136.852 32.1044 136.498 31.7678C136.145 31.4311 135.881 31.0625 135.706 30.6619L137.349 29.9844C137.464 30.1719 137.617 30.37 137.809 30.5788C138.005 30.7919 138.269 30.973 138.601 31.1222C138.938 31.2713 139.371 31.3459 139.899 31.3459C140.623 31.3459 141.222 31.169 141.695 30.8153C142.168 30.4659 142.405 29.9077 142.405 29.1406V27.2102H142.283C142.168 27.419 142.002 27.6513 141.785 27.907C141.572 28.1626 141.278 28.3842 140.903 28.5717C140.528 28.7592 140.04 28.853 139.439 28.853C138.663 28.853 137.964 28.6719 137.342 28.3097C136.724 27.9432 136.234 27.4041 135.872 26.6925C135.514 25.9766 135.335 25.0966 135.335 24.0526C135.335 23.0085 135.512 22.1136 135.866 21.3679C136.224 20.6222 136.714 20.0511 137.336 19.6548C137.958 19.2543 138.663 19.054 139.452 19.054C140.061 19.054 140.553 19.1562 140.928 19.3608C141.303 19.5611 141.595 19.7955 141.804 20.0639C142.017 20.3324 142.181 20.5689 142.296 20.7734H142.437V19.1818H144.309V29.2173C144.309 30.0611 144.113 30.7536 143.721 31.2947C143.329 31.8359 142.799 32.2365 142.13 32.4964C141.465 32.7564 140.715 32.8864 139.88 32.8864ZM139.861 27.2678C140.41 27.2678 140.875 27.1399 141.254 26.8842C141.638 26.6243 141.927 26.2536 142.123 25.772C142.324 25.2862 142.424 24.7045 142.424 24.027C142.424 23.3665 142.326 22.7848 142.13 22.282C141.934 21.7791 141.646 21.3871 141.267 21.1058C140.888 20.8203 140.419 20.6776 139.861 20.6776C139.285 20.6776 138.806 20.8267 138.422 21.125C138.039 21.419 137.749 21.8196 137.553 22.3267C137.361 22.8338 137.265 23.4006 137.265 24.027C137.265 24.6705 137.363 25.2351 137.559 25.7209C137.756 26.2067 138.045 26.5859 138.429 26.8587C138.817 27.1314 139.294 27.2678 139.861 27.2678ZM149.73 29.2173C149.108 29.2173 148.545 29.1023 148.042 28.8722C147.54 28.6378 147.141 28.299 146.847 27.8558C146.557 27.4126 146.412 26.8693 146.412 26.2259C146.412 25.6719 146.519 25.2159 146.732 24.858C146.945 24.5 147.233 24.2166 147.595 24.0078C147.957 23.799 148.362 23.6413 148.809 23.5348C149.257 23.4283 149.713 23.3473 150.177 23.2919C150.765 23.2237 151.243 23.1683 151.609 23.1257C151.976 23.0788 152.242 23.0043 152.408 22.902C152.574 22.7997 152.657 22.6335 152.657 22.4034V22.3587C152.657 21.8004 152.5 21.3679 152.184 21.0611C151.873 20.7543 151.409 20.6009 150.791 20.6009C150.148 20.6009 149.64 20.7436 149.27 21.0291C148.903 21.3104 148.65 21.6236 148.509 21.9688L146.713 21.5597C146.926 20.9631 147.237 20.4815 147.646 20.1151C148.059 19.7443 148.535 19.4759 149.072 19.3097C149.608 19.1392 150.173 19.054 150.765 19.054C151.157 19.054 151.573 19.1009 152.012 19.1946C152.455 19.2841 152.868 19.4503 153.252 19.6932C153.64 19.9361 153.957 20.2834 154.204 20.7351C154.452 21.1825 154.575 21.7642 154.575 22.4801V29H152.709V27.6577H152.632C152.508 27.9048 152.323 28.1477 152.076 28.3864C151.829 28.625 151.511 28.8232 151.123 28.9808C150.736 29.1385 150.271 29.2173 149.73 29.2173ZM150.145 27.6832C150.674 27.6832 151.126 27.5788 151.501 27.37C151.88 27.1612 152.167 26.8885 152.363 26.5518C152.564 26.2109 152.664 25.8466 152.664 25.4588V24.1932C152.596 24.2614 152.464 24.3253 152.268 24.3849C152.076 24.4403 151.856 24.4893 151.609 24.532C151.362 24.5703 151.121 24.6065 150.887 24.6406C150.653 24.6705 150.456 24.696 150.299 24.7173C149.928 24.7642 149.589 24.843 149.282 24.9538C148.98 25.0646 148.737 25.2244 148.554 25.4332C148.375 25.6378 148.285 25.9105 148.285 26.2514C148.285 26.7244 148.46 27.0824 148.809 27.3253C149.159 27.5639 149.604 27.6832 150.145 27.6832ZM157.121 29V19.1818H158.968V20.7415H159.07C159.249 20.2131 159.565 19.7976 160.016 19.495C160.472 19.1882 160.988 19.0348 161.563 19.0348C161.683 19.0348 161.823 19.0391 161.985 19.0476C162.151 19.0561 162.281 19.0668 162.375 19.0795V20.9077C162.298 20.8864 162.162 20.8629 161.966 20.8374C161.77 20.8075 161.574 20.7926 161.378 20.7926C160.926 20.7926 160.523 20.8885 160.17 21.0803C159.82 21.2678 159.543 21.5298 159.339 21.8665C159.134 22.1989 159.032 22.5781 159.032 23.0043V29H157.121Z" fill="#5706AC"/>
<rect x="0.5" y="0.5" width="202" height="43" rx="9.5" stroke="#3C0085"/>
<defs>
<clipPath id="clip0_513_3297">
<rect width="24" height="24" fill="white" transform="translate(40 10)"/>
</clipPath>
</defs>
</svg>
