<svg width="49" height="49" viewBox="0 0 49 49" fill="none" xmlns="http://www.w3.org/2000/svg">
<rect width="49" height="49" rx="10" fill="url(#paint0_linear_396_120)"/>
<mask id="mask0_396_120" style="mask-type:alpha" maskUnits="userSpaceOnUse" x="8" y="8" width="33" height="33">
<rect x="8.30508" y="8.30518" width="32.547" height="32.547" fill="#D9D9D9"/>
</mask>
<g mask="url(#mask0_396_120)">
<path d="M15.0857 35.4439C14.3398 35.4439 13.7013 35.1997 13.1702 34.7113C12.639 34.223 12.3734 33.6359 12.3734 32.9501V15.4938C12.3734 14.808 12.639 14.2209 13.1702 13.7325C13.7013 13.2442 14.3398 13 15.0857 13H34.0715C34.8173 13 35.4558 13.2442 35.987 13.7325C36.5181 14.2209 36.7837 14.808 36.7837 15.4938V18.611H34.0715V15.4938H15.0857V32.9501H34.0715V29.8329H36.7837V32.9501C36.7837 33.6359 36.5181 34.223 35.987 34.7113C35.4558 35.1997 34.8173 35.4439 34.0715 35.4439H15.0857ZM25.9347 30.4564C25.1888 30.4564 24.5503 30.2122 24.0192 29.7238C23.488 29.2354 23.2225 28.6484 23.2225 27.9626V20.4813C23.2225 19.7955 23.488 19.2084 24.0192 18.7201C24.5503 18.2317 25.1888 17.9875 25.9347 17.9875H35.4276C36.1735 17.9875 36.812 18.2317 37.3431 18.7201C37.8743 19.2084 38.1398 19.7955 38.1398 20.4813V27.9626C38.1398 28.6484 37.8743 29.2354 37.3431 29.7238C36.812 30.2122 36.1735 30.4564 35.4276 30.4564H25.9347ZM35.4276 27.9626V20.4813H25.9347V27.9626H35.4276ZM30.0031 26.0923C30.5681 26.0923 31.0484 25.9104 31.444 25.5468C31.8395 25.1831 32.0373 24.7415 32.0373 24.2219C32.0373 23.7024 31.8395 23.2608 31.444 22.8971C31.0484 22.5335 30.5681 22.3516 30.0031 22.3516C29.438 22.3516 28.9577 22.5335 28.5622 22.8971C28.1667 23.2608 27.9689 23.7024 27.9689 24.2219C27.9689 24.7415 28.1667 25.1831 28.5622 25.5468C28.9577 25.9104 29.438 26.0923 30.0031 26.0923Z" fill="#A1E2FE"/>
</g>
<defs>
<linearGradient id="paint0_linear_396_120" x1="40.5" y1="43.5" x2="24" y2="4.5" gradientUnits="userSpaceOnUse">
<stop stop-color="#5706AC"/>
<stop offset="1" stop-color="#8440CC"/>
</linearGradient>
</defs>
</svg>
